<svg width="597" height="401" viewBox="0 0 597 401" fill="none" xmlns="http://www.w3.org/2000/svg">
<g clip-path="url(#clip0_26_5)">
<path d="M105.784 308.736C104.94 307.312 101.287 308.836 100.616 307.544C99.9465 306.257 103.34 304.295 105.279 299.814C105.629 299.006 107.832 293.914 106.201 292.343C103.109 289.364 88.9612 301.655 84.0101 297.633C82.9235 296.751 82.1644 294.988 78.8759 292.127C77.5676 290.989 76.7765 290.475 76.0109 290.667C74.9245 290.938 74.8384 292.392 73.6735 295.251C71.9265 299.538 70.8933 299.279 69.8754 302.699C69.1198 305.239 69.2924 306.715 68.4032 307.003C67.145 307.41 65.9868 304.716 64.3922 304.957C62.765 305.204 61.7812 308.339 61.4705 310.687C60.8874 315.093 62.5055 318.001 63.4023 321.058C64.3769 324.38 64.9554 329.433 62.7046 336.586L40.4275 399.352C45.3456 386.472 59.5859 351.166 65.5696 338.046C67.2971 334.259 69.2043 330.417 73.1206 328.901C76.8911 327.441 82.0693 328.313 88.6709 326.723C89.4419 326.537 91.5814 325.993 91.8507 324.734C92.0734 323.694 90.8149 323.113 91.0082 322.139C91.2676 320.832 93.7424 320.816 96.7836 319.308C98.928 318.244 100.264 316.98 101.413 315.892C101.759 315.565 106.908 310.631 105.784 308.736Z" fill="#F2F2F2"/>
<path d="M18.1389 341.778C17.1965 341.782 16.8908 344.014 16.063 343.971C15.238 343.928 15.2545 341.697 13.6147 339.452C13.3189 339.047 11.4554 336.497 10.2135 336.844C7.85965 337.502 9.81001 347.992 6.40733 349.262C5.6606 349.54 4.57667 349.405 2.22364 350.193C1.28754 350.507 0.807075 350.747 0.679995 351.178C0.499695 351.789 1.18845 352.251 2.25544 353.648C3.8556 355.742 3.4304 356.174 4.81553 357.661C5.84379 358.764 6.61817 359.106 6.50276 359.625C6.33949 360.36 4.68342 360.151 4.34169 361.004C3.993 361.873 5.24828 363.261 6.31099 364.091C8.30528 365.648 10.1991 365.693 11.9584 366.135C13.8702 366.615 16.5169 367.789 19.3781 370.958L43.7565 400.001C38.8542 393.871 25.6346 376.695 20.9217 369.973C19.5612 368.032 18.2261 365.988 18.6119 363.628C18.9833 361.356 20.9052 359.066 22.0294 355.367C22.1607 354.935 22.5108 353.728 21.9709 353.233C21.5245 352.824 20.8764 353.274 20.4539 352.898C19.8873 352.393 20.5935 351.174 20.7308 349.246C20.8277 347.887 20.5925 346.866 20.3903 345.989C20.3293 345.724 19.3933 341.774 18.1389 341.778Z" fill="#F2F2F2"/>
<path d="M36.9385 345.998L36.3708 340.93L36.6302 340.546C37.8305 338.769 38.4423 337.034 38.4496 335.387C38.4509 335.125 38.4386 334.864 38.4264 334.597C38.3774 333.54 38.3163 332.225 39.0015 330.694C39.3857 329.839 40.4649 327.862 42.0874 328.107C42.5243 328.168 42.8546 328.369 43.1055 328.604C43.1422 328.545 43.1801 328.486 43.2205 328.422C43.7258 327.652 44.126 327.321 44.5114 327.003C44.8075 326.758 45.1134 326.506 45.5931 325.909C45.8035 325.647 45.9675 325.417 46.1058 325.224C46.5255 324.639 47.0736 323.942 48.0403 323.954C49.073 324.003 49.6138 324.857 49.9723 325.422C50.6123 326.43 50.9023 327.157 51.0944 327.639C51.1641 327.816 51.2437 328.014 51.284 328.075C51.6169 328.564 54.3223 328.107 55.3415 327.94C57.6309 327.559 59.6119 327.228 60.4281 328.672C61.013 329.705 60.5786 331.07 59.098 332.84C58.6367 333.39 58.146 333.809 57.7104 334.137C58.0714 334.352 58.3944 334.682 58.5253 335.201C58.8337 336.43 57.7777 337.661 55.388 338.865C54.7946 339.166 53.9956 339.567 52.876 339.76C52.3486 339.851 51.8738 339.873 51.4676 339.885C51.459 340.12 51.404 340.375 51.2608 340.637C50.8411 341.407 49.9675 341.774 48.6509 341.686C47.2021 341.611 46.0091 341.334 44.9568 341.092C44.0379 340.881 43.2462 340.703 42.6246 340.744C41.472 340.837 40.5836 341.76 39.5412 342.956L36.9385 345.998Z" fill="#F2F2F2"/>
<path d="M39.5722 315.822L34.8138 317.657L34.3763 317.504C32.3533 316.793 30.5198 316.642 28.9248 317.052C28.6712 317.117 28.421 317.196 28.1661 317.275C27.1559 317.591 25.9003 317.983 24.2446 317.709C23.321 317.554 21.1346 317.012 20.9598 315.38C20.9082 314.942 21.0185 314.572 21.1821 314.269C21.116 314.249 21.0495 314.227 20.9777 314.204C20.1039 313.911 19.6828 313.608 19.2773 313.315C18.9655 313.091 18.6441 312.859 17.9448 312.547C17.6382 312.409 17.3741 312.309 17.152 312.224C16.4798 311.967 15.6661 311.613 15.4327 310.675C15.2181 309.664 15.9071 308.924 16.363 308.434C17.1759 307.559 17.8054 307.094 18.223 306.786C18.3758 306.674 18.5473 306.547 18.5963 306.492C18.9853 306.046 17.8564 303.545 17.4369 302.602C16.487 300.484 15.6649 298.652 16.8545 297.496C17.7051 296.668 19.1362 296.742 21.2232 297.725C21.8728 298.032 22.4021 298.4 22.8298 298.739C22.9465 298.335 23.1842 297.939 23.6528 297.68C24.7629 297.07 26.2214 297.78 27.9923 299.786C28.4339 300.283 29.0249 300.955 29.4958 301.988C29.7172 302.476 29.8589 302.929 29.9738 303.319C30.2032 303.268 30.4634 303.257 30.753 303.329C31.6051 303.539 32.1818 304.291 32.4305 305.587C32.7246 307.008 32.7597 308.232 32.7923 309.311C32.8218 310.253 32.8498 311.064 33.0477 311.655C33.43 312.746 34.5478 313.372 35.9698 314.077L39.5722 315.822Z" fill="#F2F2F2"/>
<path d="M36.9385 300.891L36.3708 295.823L36.6302 295.439C37.8305 293.662 38.4423 291.927 38.4496 290.28C38.4509 290.018 38.4386 289.757 38.4264 289.49C38.3774 288.433 38.3163 287.119 39.0015 285.587C39.3857 284.733 40.4649 282.755 42.0874 283C42.5243 283.061 42.8546 283.262 43.1055 283.497C43.1422 283.438 43.1801 283.379 43.2205 283.316C43.7258 282.545 44.126 282.214 44.5114 281.896C44.8075 281.651 45.1134 281.399 45.5931 280.802C45.8035 280.54 45.9675 280.31 46.1058 280.117C46.5255 279.532 47.0736 278.835 48.0403 278.847C49.073 278.896 49.6138 279.75 49.9723 280.315C50.6123 281.324 50.9023 282.05 51.0944 282.532C51.1641 282.709 51.2437 282.907 51.284 282.968C51.6169 283.457 54.3223 283 55.3415 282.833C57.6309 282.452 59.6119 282.121 60.4281 283.565C61.013 284.598 60.5786 285.963 59.098 287.733C58.6367 288.283 58.146 288.702 57.7104 289.03C58.0714 289.245 58.3944 289.576 58.5253 290.094C58.8337 291.323 57.7777 292.554 55.388 293.758C54.7946 294.059 53.9956 294.46 52.876 294.654C52.3486 294.744 51.8738 294.766 51.4676 294.778C51.459 295.013 51.404 295.268 51.2608 295.53C50.8411 296.3 49.9675 296.668 48.6509 296.579C47.2021 296.504 46.0091 296.227 44.9568 295.985C44.0379 295.774 43.2462 295.596 42.6246 295.637C41.472 295.73 40.5836 296.653 39.5412 297.85L36.9385 300.891Z" fill="#F2F2F2"/>
<path d="M42.1241 399.269L41.062 398.604L39.8238 398.746C39.8042 398.63 39.7369 398.366 39.6353 397.953C39.0811 395.686 37.3913 388.79 35.9817 377.93C34.9979 370.348 34.4411 362.554 34.3261 354.759C34.2111 346.953 34.5806 341.043 34.8767 336.293C35.1006 332.71 35.3723 329.299 35.639 325.975C36.3487 317.097 37.018 308.71 36.52 299.426C36.4099 297.353 36.1786 293.038 33.658 288.447C32.1958 285.785 30.1818 283.421 27.6709 281.424L29.2322 279.461C32.0037 281.669 34.2319 284.287 35.8556 287.243C38.6503 292.334 38.9024 297.035 39.0235 299.293C39.5301 308.742 38.8535 317.21 38.1364 326.174C37.8721 329.485 37.6005 332.881 37.3778 336.449C37.0841 341.155 36.7182 347.014 36.832 354.72C36.9446 362.422 37.4952 370.121 38.4656 377.607C39.858 388.33 41.5234 395.124 42.0703 397.356C42.3615 398.547 42.4227 398.797 42.1241 399.269Z" fill="#F2F2F2"/>
<path d="M23.0751 285.406C22.9723 285.406 22.8683 285.403 22.7631 285.396C20.6291 285.281 18.653 284.003 16.8885 281.6C16.0614 280.469 15.638 279.18 14.7937 276.608C14.6628 276.211 14.0265 274.2 13.6399 271.432C13.3866 269.623 13.4184 268.867 13.7769 268.199C14.1746 267.455 14.8182 266.936 15.5426 266.587C15.5108 266.347 15.5364 266.1 15.6405 265.847C16.0675 264.802 17.203 264.94 17.8173 265.006C18.128 265.045 18.5159 265.096 18.9344 265.074C19.5927 265.042 19.9463 264.847 20.4823 264.553C20.995 264.271 21.6324 263.921 22.5783 263.728C24.4431 263.339 26.0056 263.868 26.5207 264.041C29.231 264.944 30.5672 267.051 32.1138 269.491C32.4222 269.981 33.4806 271.762 34.1793 274.205C34.6834 275.967 34.6124 276.75 34.4607 277.332C34.1523 278.529 33.4243 279.214 31.5754 280.726C29.6446 282.31 28.6755 283.103 27.8434 283.585C25.9065 284.703 24.6902 285.406 23.0751 285.406Z" fill="#F2F2F2"/>
<path d="M583.04 398.13C583.04 398.594 582.664 398.97 582.2 398.97H0V397.29H582.2C582.664 397.29 583.04 397.666 583.04 398.13Z" fill="#E6E6E6"/>
<path d="M414.967 132.595C414.967 132.595 383.628 136.365 388.914 111.586C394.2 86.8079 424.173 41.0409 424.173 41.0409L441.181 50.5794L421.654 96.7372L430.06 103.369L414.967 132.595Z" fill="#A0616A"/>
<path d="M517.666 102.43L513.25 138.75L402.592 138.208L424.816 99.5829L517.666 102.43Z" fill="#ECFF63"/>
<path d="M451.905 42.9708C458.677 33.5131 459.22 22.3044 453.119 17.9354C447.017 13.5664 436.581 17.6915 429.809 27.1492C423.037 36.6069 422.494 47.8156 428.595 52.1846C434.697 56.5536 445.133 52.4284 451.905 42.9708Z" fill="#A0616A"/>
<path d="M507.026 240.901V398.526H513.82V240.901H507.026Z" fill="#3F3D56"/>
<path d="M474.414 240.901V398.526H481.208V240.901H474.414Z" fill="#3F3D56"/>
<path d="M291.651 141.707V398.526H298.445V141.707H291.651Z" fill="#E6E6E6"/>
<path d="M401.037 240.901V398.526H407.831V240.901H401.037Z" fill="#3F3D56"/>
<path d="M375.037 240.901V398.526H381.831V240.901H375.037Z" fill="#3F3D56"/>
<path d="M500.911 237.504H369.709L344.541 273.204L475.093 280.987L500.911 237.504Z" fill="#3F3D56"/>
<path d="M260.667 115.362L261.263 89.472L182.077 95.5628L181.672 113.106L260.667 115.362Z" fill="#A0616A"/>
<path d="M207.074 92.4696L203.287 101.581L197.848 101.755C197.848 101.755 204.216 103.705 205.986 115.277L200.76 116.844C200.76 116.844 195.741 121.526 186.359 121.072L161.203 118.968L161.107 110.199L178.493 108.189C178.493 108.189 182.367 105.641 163.189 95.1625C163.189 95.1625 156.836 91.2776 162.55 72.0941C163.335 69.4575 165.707 67.5637 168.458 67.5042C169.976 67.4713 171.398 68.0166 171.966 69.902C173.411 74.7012 171.949 79.4855 175.921 82.4813C179.892 85.477 207.074 92.4696 207.074 92.4696Z" fill="#2F2E41"/>
<path d="M491.092 214.34C491.092 214.34 463.77 260.81 401.946 252.435C387.234 250.442 374.29 241.695 366.916 228.809C352.663 203.903 331.02 160.294 338.036 135.601L233.474 115.644L225.236 90.2504L338.399 75.5504C348.408 74.2502 358.213 79.1178 363.229 87.8771L418.353 184.145L434.787 185.94L491.092 214.34Z" fill="#2F2E41"/>
<path d="M262.731 125.96L261.242 100.106L182.803 112.548L183.811 130.067L262.731 125.96Z" fill="#A0616A"/>
<path d="M207.471 107.454L204.429 116.84L199.021 117.451C199.021 117.451 205.526 118.883 208.22 130.275L203.137 132.257C203.137 132.257 198.511 137.328 189.123 137.63L163.88 137.557L163.078 128.823L180.246 125.422C180.246 125.422 183.903 122.57 163.944 113.669C163.944 113.669 157.3 110.307 161.451 90.7264C162.022 88.0351 164.234 85.9567 166.971 85.676C168.481 85.5212 169.943 85.9502 170.66 87.7838C172.487 92.4512 171.414 97.3377 175.614 100.004C179.814 102.671 207.471 107.454 207.471 107.454Z" fill="#2F2E41"/>
<path d="M500.372 206.08C500.372 206.08 476.877 254.596 414.581 251.223C399.756 250.42 386.15 242.743 377.763 230.492C361.552 206.813 336.471 165.087 341.478 139.909L235.65 128.429L225.395 103.781L337.008 80.0241C346.881 77.9228 357.046 81.9857 362.75 90.3131L425.44 181.835L441.965 182.301L500.372 206.08Z" fill="#2F2E41"/>
<path d="M428.754 1.20636L423.318 5.28285L451.854 44.6889L457.289 43.3301L428.754 1.20636Z" fill="#3F3D56"/>
<path d="M502.949 88.7123L534.202 87.3535L547.79 148.501C547.79 148.501 519.255 255.848 485.284 251.772C485.284 251.772 464.222 236.145 464.222 230.71C464.222 225.275 435.687 211.686 435.687 211.686L428.893 188.586L449.275 157.333C449.275 157.333 457.428 132.874 484.605 119.286L502.949 88.7123Z" fill="#ECFF63"/>
<path d="M324.263 136.271H46.3822V143.066H182.265V398.526H189.059V143.066H324.263V136.271Z" fill="#E6E6E6"/>
<path d="M519.255 83.277C539.518 83.277 555.944 66.851 555.944 46.5886C555.944 26.3261 539.518 9.90015 519.255 9.90015C498.993 9.90015 482.567 26.3261 482.567 46.5886C482.567 66.851 498.993 83.277 519.255 83.277Z" fill="#A0616A"/>
<path d="M391.332 93.4682L365.707 103.659L415.984 170.242L433.649 156.654L391.332 93.4682Z" fill="#E6E6E6"/>
<path d="M491.399 221.198C491.399 221.198 481.887 251.296 461.505 236.247C441.122 221.198 411.822 174.998 411.822 174.998L427.534 163.448L461.505 200.297L471.017 195.381L491.399 221.198Z" fill="#A0616A"/>
<path d="M506.346 115.21L537.599 134.233L491.399 234.787L461.505 194.022L506.346 115.21Z" fill="#ECFF63"/>
<path d="M423.797 175.573C430.296 171.821 430.85 160.613 425.034 150.539C419.218 140.465 409.235 135.341 402.735 139.093C396.236 142.845 395.682 154.054 401.499 164.127C407.315 174.201 417.298 179.326 423.797 175.573Z" fill="#A0616A"/>
<path d="M523.267 157.67C532.683 126.802 542.788 117.033 553.412 123.149C561.498 127.804 563.932 138.401 559.193 146.438C547.113 166.926 522.223 213.866 527.408 244.978C527.408 244.978 535.561 288.46 470.337 288.46C405.113 288.46 342.607 273.513 342.607 273.513L376.578 268.078L453.831 273.596C471.482 274.857 486.358 259.754 484 242.217C483.922 241.638 483.83 241.052 483.722 240.461C479.849 219.16 523.267 157.67 523.267 157.67Z" fill="#3F3D56"/>
<path d="M505.504 31.3797C502.507 39.7715 509.093 48.4853 517.984 47.8926L518.196 47.8785C524.173 55.3496 524.338 65.918 518.597 73.5722C518.125 83.4375 519.671 93.2952 523.139 102.543L532.882 128.526L547.882 121.526L555.001 140.526L596.882 118.95L571.5 61.839L563.753 30.8546C558.242 8.81059 535.756 -4.45807 513.795 1.37529L496.947 5.85075C483.636 9.38649 475.974 23.3229 480.121 36.4562L505.504 31.3797Z" fill="#2F2E41"/>
</g>
<defs>
<clipPath id="clip0_26_5">
<rect width="596.882" height="400.001" fill="white"/>
</clipPath>
</defs>
</svg>
