<svg width="152" height="39" viewBox="0 0 152 39" fill="none" xmlns="http://www.w3.org/2000/svg">
<g clip-path="url(#clip0_23_70)">
<rect width="152" height="39" fill="white"/>
<path d="M0 2.81609V5.63216H4.06389H8.12778V6.16349V6.69483H4.06389H0V9.40464V12.1145H4.06389H8.12778V12.6458V13.1771H4.06389H0V15.9932V18.8093H4.06389H8.12778V19.3406V19.8719H4.06389H0V22.7412V25.6104H4.06389H8.12778V26.1417V26.673H4.06389H0V29.436V32.1989H4.06389H8.12778V32.7303V33.2616H4.06389H0V36.0245V38.7875H75.8944H151.789V36.0245V33.2616H147.725H143.661V32.7303V32.1989H147.725H151.789V29.436V26.673H147.725H143.661V26.1417V25.6104H147.725H151.789V22.7412V19.8719H147.725H143.661V19.3406V18.8093H147.725H151.789V15.9932V13.1771H147.725H143.661V12.6458V12.1145H147.725H151.789V9.40464V6.69483H147.725H143.661V6.16349V5.63216H147.725H151.789V2.81609V7.62939e-06H75.8944H0V2.81609ZM30.8961 5.14333C34.2 5.70655 36.3217 7.14115 37.0606 9.31963C37.2717 9.92535 37.3033 10.2335 37.2928 11.2643C37.2822 11.9338 37.2083 12.7521 37.1344 13.0709L36.9972 13.6553H33.155H29.3128L29.3339 12.8902C29.3761 11.6894 28.9011 10.988 27.7506 10.563C27.075 10.3079 25.4494 10.3079 24.7 10.5523C22.9267 11.1474 21.8394 12.6777 22.3356 13.9104C22.7472 14.9412 23.8344 15.4725 27.4444 16.3758C30.5267 17.1621 31.3606 17.4278 32.5639 18.0442C34.6856 19.1493 35.6778 20.754 35.6778 23.1237C35.6778 28.6602 31.3078 32.6984 24.2883 33.6335C22.8106 33.8354 19.855 33.8354 18.335 33.6335C14.3344 33.1022 11.9806 31.4657 11.2311 28.6921C11.0306 27.9376 10.9883 25.7591 11.1572 24.8665L11.2522 24.3883L15.0733 24.3564L18.8944 24.3352L18.8839 25.2278C18.8733 27.2362 19.95 28.2245 22.3039 28.3521C25.08 28.4902 27.3389 27.045 27.3389 25.1109C27.3389 23.5594 26.5367 23.0174 22.8 22.0398C17.5539 20.6689 15.7278 19.8082 14.725 18.2248C13.1206 15.6956 13.8911 11.6575 16.5511 8.69265C16.7517 8.46949 17.2689 8.02317 17.7017 7.69374C19.6333 6.22726 22.1983 5.33461 25.4389 4.99456C26.6844 4.86704 29.7244 4.95205 30.8961 5.14333ZM64.8745 5.50464C64.98 5.57903 63.9983 10.5417 63.8189 10.8286C63.7661 10.9136 61.9189 10.9455 57.1056 10.9455C50.8778 10.9455 50.4661 10.9561 50.4133 11.1262C50.3289 11.3918 49.2944 16.3545 49.2944 16.482C49.2944 16.5352 51.6906 16.5777 55.4272 16.5777H61.56L61.5178 16.8115C61.4967 16.9496 61.2433 18.1717 60.9583 19.5213L60.4306 21.9973L54.2661 22.0185L48.0911 22.0504L47.5422 24.654C47.2361 26.0886 46.9617 27.385 46.93 27.5444L46.8772 27.842H53.58C59.9133 27.842 60.2828 27.8526 60.23 28.0226C60.1983 28.1289 59.9556 29.2659 59.6917 30.5518C59.4172 31.8376 59.1744 32.9747 59.1533 33.0703C59.1006 33.251 58.4989 33.2616 48.5344 33.2616C40.1322 33.2616 37.9894 33.2297 38.0211 33.1234C38.0528 33.0597 39.3722 26.8537 40.9556 19.3406C42.9506 9.92535 43.89 5.64279 44.0061 5.54715C44.1328 5.44088 46.265 5.41963 54.4667 5.41963C60.135 5.43025 64.8111 5.46214 64.8745 5.50464ZM79.9372 5.55777C80.0428 5.64279 80.9189 9.1496 82.5128 15.9082C84.1383 22.8368 84.9406 26.0673 84.9933 25.8973C85.0356 25.7698 86.0278 21.1471 87.1889 15.6213C88.3606 10.0954 89.3739 5.54715 89.4372 5.50464C89.6061 5.39837 95.9606 5.39837 96.1294 5.50464C96.2139 5.55777 95.4644 9.29837 93.3217 19.3937L90.3978 33.2085L85.1306 33.2403C82.2383 33.251 79.8317 33.2297 79.7895 33.1872C79.7472 33.1341 78.6283 28.3839 77.3089 22.6136C75.9789 16.8433 74.8706 12.157 74.8389 12.1782C74.8072 12.2101 73.7833 16.9602 72.5589 22.7199L70.3422 33.2085L66.8906 33.2403C64.5578 33.251 63.4389 33.2297 63.4389 33.1553C63.4389 32.7515 69.2867 5.5684 69.3817 5.50464C69.4556 5.46214 71.82 5.41963 74.6383 5.41963C78.5017 5.43025 79.8106 5.46214 79.9372 5.55777ZM119.246 5.50464C119.341 5.5684 124.344 32.6559 124.344 33.1234C124.344 33.2297 123.416 33.2616 120.027 33.2616H115.721L115.657 32.964C115.636 32.8046 115.478 31.5932 115.309 30.2542L115.013 27.842H109.408H103.814L102.336 30.5518L100.869 33.2616H97.0267H93.195L93.3217 33.0172C93.7228 32.2733 109.936 5.5684 110.031 5.50464C110.189 5.39837 119.088 5.39837 119.246 5.50464ZM140.674 5.50464C140.779 5.5684 140.125 8.85205 137.908 19.2981C136.314 26.8324 134.984 33.0597 134.953 33.1234C134.879 33.3253 127.3 33.3253 127.3 33.1234C127.3 32.9109 133.095 5.63216 133.158 5.51527C133.232 5.39837 140.494 5.38774 140.674 5.50464Z" fill="#FF4242"/>
<path d="M110.031 16.6521L106.949 22.3692L110.548 22.4011C112.522 22.4117 114.158 22.4011 114.19 22.3692C114.264 22.3055 113.272 11.3812 113.177 11.1262C113.124 10.988 112.237 12.5501 110.031 16.6521Z" fill="#FF4242"/>
</g>
<defs>
<clipPath id="clip0_23_70">
<rect width="152" height="39" fill="white"/>
</clipPath>
</defs>
</svg>
